<svg width="1440" height="556" viewBox="0 0 1440 556" fill="none" xmlns="http://www.w3.org/2000/svg">
<rect width="1440" height="568" fill="#F2F2F2"/>
<rect x="540" y="468" width="360" height="64" rx="5" fill="black"/>
<path d="M688.895 498.107L691.962 493.203H693.948L689.905 499.549L694.045 506H692.041L688.895 501.008L685.73 506H683.735L687.884 499.549L683.832 493.203H685.81L688.895 498.107ZM701.621 506C701.527 505.812 701.451 505.479 701.393 504.998C700.637 505.783 699.734 506.176 698.686 506.176C697.748 506.176 696.978 505.912 696.374 505.385C695.776 504.852 695.478 504.178 695.478 503.363C695.478 502.373 695.853 501.605 696.603 501.061C697.358 500.51 698.419 500.234 699.784 500.234H701.366V499.487C701.366 498.919 701.196 498.468 700.856 498.134C700.517 497.794 700.016 497.624 699.354 497.624C698.773 497.624 698.287 497.771 697.895 498.063C697.502 498.356 697.306 498.711 697.306 499.127H695.671C695.671 498.652 695.838 498.195 696.172 497.756C696.512 497.311 696.969 496.959 697.543 496.701C698.123 496.443 698.759 496.314 699.45 496.314C700.546 496.314 701.404 496.59 702.025 497.141C702.646 497.686 702.969 498.438 702.992 499.399V503.776C702.992 504.649 703.104 505.344 703.326 505.859V506H701.621ZM698.923 504.761C699.433 504.761 699.916 504.629 700.373 504.365C700.83 504.102 701.161 503.759 701.366 503.337V501.386H700.092C698.1 501.386 697.104 501.969 697.104 503.135C697.104 503.645 697.273 504.043 697.613 504.33C697.953 504.617 698.39 504.761 698.923 504.761ZM700.426 492.5H702.395L700.039 495.084H698.729L700.426 492.5ZM709.355 504.849C709.936 504.849 710.442 504.673 710.876 504.321C711.31 503.97 711.55 503.53 711.597 503.003H713.135C713.105 503.548 712.918 504.066 712.572 504.559C712.227 505.051 711.764 505.443 711.184 505.736C710.609 506.029 710 506.176 709.355 506.176C708.061 506.176 707.029 505.745 706.262 504.884C705.5 504.017 705.119 502.833 705.119 501.333V501.061C705.119 500.135 705.289 499.312 705.629 498.591C705.969 497.87 706.455 497.311 707.088 496.912C707.727 496.514 708.479 496.314 709.347 496.314C710.413 496.314 711.298 496.634 712.001 497.272C712.71 497.911 713.088 498.74 713.135 499.76H711.597C711.55 499.145 711.315 498.641 710.894 498.248C710.478 497.85 709.962 497.65 709.347 497.65C708.521 497.65 707.879 497.949 707.422 498.547C706.971 499.139 706.745 499.997 706.745 501.122V501.43C706.745 502.525 706.971 503.369 707.422 503.961C707.873 504.553 708.518 504.849 709.355 504.849ZM720.966 496.49L721.019 497.686C721.745 496.771 722.694 496.314 723.866 496.314C725.876 496.314 726.89 497.448 726.907 499.716V506H725.281V499.707C725.275 499.021 725.117 498.515 724.807 498.187C724.502 497.858 724.024 497.694 723.374 497.694C722.847 497.694 722.384 497.835 721.985 498.116C721.587 498.397 721.276 498.767 721.054 499.224V506H719.428V496.49H720.966ZM730.985 497.642C731.706 496.757 732.644 496.314 733.798 496.314C735.808 496.314 736.821 497.448 736.839 499.716V506H735.213V499.707C735.207 499.021 735.049 498.515 734.738 498.187C734.434 497.858 733.956 497.694 733.306 497.694C732.778 497.694 732.315 497.835 731.917 498.116C731.519 498.397 731.208 498.767 730.985 499.224V506H729.359V492.5H730.985V497.642ZM745.145 506C745.051 505.812 744.975 505.479 744.916 504.998C744.16 505.783 743.258 506.176 742.209 506.176C741.271 506.176 740.501 505.912 739.897 505.385C739.3 504.852 739.001 504.178 739.001 503.363C739.001 502.373 739.376 501.605 740.126 501.061C740.882 500.51 741.942 500.234 743.308 500.234H744.89V499.487C744.89 498.919 744.72 498.468 744.38 498.134C744.04 497.794 743.539 497.624 742.877 497.624C742.297 497.624 741.811 497.771 741.418 498.063C741.025 498.356 740.829 498.711 740.829 499.127H739.194C739.194 498.652 739.361 498.195 739.695 497.756C740.035 497.311 740.492 496.959 741.066 496.701C741.646 496.443 742.282 496.314 742.974 496.314C744.069 496.314 744.928 496.59 745.549 497.141C746.17 497.686 746.492 498.438 746.516 499.399V503.776C746.516 504.649 746.627 505.344 746.85 505.859V506H745.145ZM742.446 504.761C742.956 504.761 743.439 504.629 743.896 504.365C744.354 504.102 744.685 503.759 744.89 503.337V501.386H743.615C741.623 501.386 740.627 501.969 740.627 503.135C740.627 503.645 740.797 504.043 741.137 504.33C741.477 504.617 741.913 504.761 742.446 504.761ZM745.812 494.908V494.996H744.468L743.149 493.502L741.84 494.996H740.495V494.891L742.657 492.5H743.642L745.812 494.908ZM741.436 508.153C741.436 507.89 741.515 507.667 741.673 507.485C741.837 507.304 742.077 507.213 742.394 507.213C742.71 507.213 742.95 507.304 743.114 507.485C743.278 507.667 743.36 507.89 743.36 508.153C743.36 508.417 743.278 508.637 743.114 508.812C742.95 508.988 742.71 509.076 742.394 509.076C742.077 509.076 741.837 508.988 741.673 508.812C741.515 508.637 741.436 508.417 741.436 508.153ZM750.603 496.49L750.655 497.686C751.382 496.771 752.331 496.314 753.503 496.314C755.513 496.314 756.526 497.448 756.544 499.716V506H754.918V499.707C754.912 499.021 754.754 498.515 754.443 498.187C754.139 497.858 753.661 497.694 753.011 497.694C752.483 497.694 752.021 497.835 751.622 498.116C751.224 498.397 750.913 498.767 750.69 499.224V506H749.064V496.49H750.603Z" fill="white"/>
<path d="M662.195 150.672C662.387 150.672 662.555 150.75 662.699 150.906L664.085 152.4C663.029 153.624 661.745 154.578 660.233 155.262C658.733 155.946 656.915 156.288 654.779 156.288C652.931 156.288 651.251 155.97 649.739 155.334C648.227 154.686 646.937 153.786 645.869 152.634C644.801 151.47 643.973 150.078 643.385 148.458C642.797 146.838 642.503 145.056 642.503 143.112C642.503 141.168 642.809 139.386 643.421 137.766C644.033 136.146 644.891 134.754 645.995 133.59C647.111 132.426 648.443 131.526 649.991 130.89C651.539 130.242 653.249 129.918 655.121 129.918C656.957 129.918 658.577 130.212 659.981 130.8C661.385 131.388 662.621 132.186 663.689 133.194L662.537 134.796C662.465 134.916 662.369 135.018 662.249 135.102C662.141 135.174 661.991 135.21 661.799 135.21C661.583 135.21 661.319 135.096 661.007 134.868C660.695 134.628 660.287 134.364 659.783 134.076C659.279 133.788 658.649 133.53 657.893 133.302C657.137 133.062 656.207 132.942 655.103 132.942C653.771 132.942 652.553 133.176 651.449 133.644C650.345 134.1 649.391 134.766 648.587 135.642C647.795 136.518 647.177 137.586 646.733 138.846C646.289 140.106 646.067 141.528 646.067 143.112C646.067 144.72 646.295 146.154 646.751 147.414C647.219 148.674 647.849 149.742 648.641 150.618C649.445 151.482 650.387 152.142 651.467 152.598C652.559 153.054 653.735 153.282 654.995 153.282C655.763 153.282 656.453 153.24 657.065 153.156C657.689 153.06 658.259 152.916 658.775 152.724C659.303 152.532 659.789 152.292 660.233 152.004C660.689 151.704 661.139 151.35 661.583 150.942C661.787 150.762 661.991 150.672 662.195 150.672ZM670.6 140.196C671.38 139.368 672.244 138.708 673.192 138.216C674.14 137.724 675.232 137.478 676.468 137.478C677.464 137.478 678.34 137.646 679.096 137.982C679.864 138.306 680.5 138.774 681.004 139.386C681.52 139.986 681.91 140.712 682.174 141.564C682.438 142.416 682.57 143.358 682.57 144.39V156H679.348V144.39C679.348 143.01 679.03 141.942 678.394 141.186C677.77 140.418 676.816 140.034 675.532 140.034C674.584 140.034 673.696 140.262 672.868 140.718C672.052 141.174 671.296 141.792 670.6 142.572V156H667.378V129.486H670.6V140.196ZM690.836 137.766V156H687.614V137.766H690.836ZM685.976 130.476C686.336 130.2 686.798 129.984 687.362 129.828C687.938 129.66 688.55 129.576 689.198 129.576C689.738 129.576 690.206 129.636 690.602 129.756C691.01 129.864 691.34 130.02 691.592 130.224C691.856 130.428 692.054 130.668 692.186 130.944C692.318 131.22 692.384 131.52 692.384 131.844C692.384 132.432 692.186 132.942 691.79 133.374C691.394 133.794 690.89 134.124 690.278 134.364L689.972 135.84H688.406V133.464C689.054 133.38 689.498 133.224 689.738 132.996C689.978 132.756 690.098 132.486 690.098 132.186C690.098 131.91 689.996 131.67 689.792 131.466C689.6 131.25 689.264 131.142 688.784 131.142C688.544 131.142 688.334 131.172 688.154 131.232C687.974 131.28 687.812 131.334 687.668 131.394C687.524 131.454 687.398 131.514 687.29 131.574C687.182 131.622 687.086 131.646 687.002 131.646C686.906 131.646 686.828 131.622 686.768 131.574C686.708 131.514 686.648 131.436 686.588 131.34L685.976 130.476ZM699.125 140.412C699.521 139.968 699.941 139.566 700.385 139.206C700.829 138.846 701.297 138.54 701.789 138.288C702.293 138.024 702.821 137.826 703.373 137.694C703.937 137.55 704.543 137.478 705.191 137.478C706.187 137.478 707.063 137.646 707.819 137.982C708.587 138.306 709.223 138.774 709.727 139.386C710.243 139.986 710.633 140.712 710.897 141.564C711.161 142.416 711.293 143.358 711.293 144.39V156H708.071V144.39C708.071 143.01 707.753 141.942 707.117 141.186C706.493 140.418 705.539 140.034 704.255 140.034C703.307 140.034 702.419 140.262 701.591 140.718C700.775 141.174 700.019 141.792 699.323 142.572V156H696.101V137.766H698.027C698.483 137.766 698.765 137.988 698.873 138.432L699.125 140.412ZM719.397 140.196C720.177 139.368 721.041 138.708 721.989 138.216C722.937 137.724 724.029 137.478 725.265 137.478C726.261 137.478 727.137 137.646 727.893 137.982C728.661 138.306 729.297 138.774 729.801 139.386C730.317 139.986 730.707 140.712 730.971 141.564C731.235 142.416 731.367 143.358 731.367 144.39V156H728.145V144.39C728.145 143.01 727.827 141.942 727.191 141.186C726.567 140.418 725.613 140.034 724.329 140.034C723.381 140.034 722.493 140.262 721.665 140.718C720.849 141.174 720.093 141.792 719.397 142.572V156H716.175V129.486H719.397V140.196ZM756.08 140.772C755.936 141.036 755.714 141.168 755.414 141.168C755.234 141.168 755.03 141.102 754.802 140.97C754.574 140.838 754.292 140.694 753.956 140.538C753.632 140.37 753.242 140.22 752.786 140.088C752.33 139.944 751.79 139.872 751.166 139.872C750.626 139.872 750.14 139.944 749.708 140.088C749.276 140.22 748.904 140.406 748.592 140.646C748.292 140.886 748.058 141.168 747.89 141.492C747.734 141.804 747.656 142.146 747.656 142.518C747.656 142.986 747.788 143.376 748.052 143.688C748.328 144 748.688 144.27 749.132 144.498C749.576 144.726 750.08 144.93 750.644 145.11C751.208 145.278 751.784 145.464 752.372 145.668C752.972 145.86 753.554 146.076 754.118 146.316C754.682 146.556 755.186 146.856 755.63 147.216C756.074 147.576 756.428 148.02 756.692 148.548C756.968 149.064 757.106 149.688 757.106 150.42C757.106 151.26 756.956 152.04 756.656 152.76C756.356 153.468 755.912 154.086 755.324 154.614C754.736 155.13 754.016 155.538 753.164 155.838C752.312 156.138 751.328 156.288 750.212 156.288C748.94 156.288 747.788 156.084 746.756 155.676C745.724 155.256 744.848 154.722 744.128 154.074L744.884 152.85C744.98 152.694 745.094 152.574 745.226 152.49C745.358 152.406 745.526 152.364 745.73 152.364C745.946 152.364 746.174 152.448 746.414 152.616C746.654 152.784 746.942 152.97 747.278 153.174C747.626 153.378 748.046 153.564 748.538 153.732C749.03 153.9 749.642 153.984 750.374 153.984C750.998 153.984 751.544 153.906 752.012 153.75C752.48 153.582 752.87 153.36 753.182 153.084C753.494 152.808 753.722 152.49 753.866 152.13C754.022 151.77 754.1 151.386 754.1 150.978C754.1 150.474 753.962 150.06 753.686 149.736C753.422 149.4 753.068 149.118 752.624 148.89C752.18 148.65 751.67 148.446 751.094 148.278C750.53 148.098 749.948 147.912 749.348 147.72C748.76 147.528 748.178 147.312 747.602 147.072C747.038 146.82 746.534 146.508 746.09 146.136C745.646 145.764 745.286 145.308 745.01 144.768C744.746 144.216 744.614 143.55 744.614 142.77C744.614 142.074 744.758 141.408 745.046 140.772C745.334 140.124 745.754 139.56 746.306 139.08C746.858 138.588 747.536 138.198 748.34 137.91C749.144 137.622 750.062 137.478 751.094 137.478C752.294 137.478 753.368 137.67 754.316 138.054C755.276 138.426 756.104 138.942 756.8 139.602L756.08 140.772ZM781.554 134.994C781.626 135.234 781.68 135.516 781.716 135.84C781.764 136.152 781.788 136.476 781.788 136.812C781.788 137.592 781.662 138.306 781.41 138.954C781.158 139.59 780.786 140.142 780.294 140.61C779.802 141.078 779.196 141.45 778.476 141.726C777.768 142.002 776.952 142.164 776.028 142.212V156H774.12C773.664 156 773.376 155.778 773.256 155.334L773.004 153.372C772.212 154.248 771.324 154.956 770.34 155.496C769.356 156.024 768.228 156.288 766.956 156.288C765.96 156.288 765.078 156.126 764.31 155.802C763.554 155.466 762.918 154.998 762.402 154.398C761.886 153.798 761.496 153.072 761.232 152.22C760.98 151.368 760.854 150.426 760.854 149.394V137.766H764.058V149.394C764.058 150.774 764.37 151.842 764.994 152.598C765.63 153.354 766.596 153.732 767.892 153.732C768.84 153.732 769.722 153.51 770.538 153.066C771.366 152.61 772.128 151.986 772.824 151.194V137.766H776.028V140.754C776.952 140.67 777.666 140.418 778.17 139.998C778.686 139.566 778.944 139.044 778.944 138.432C778.944 138.228 778.902 138.06 778.818 137.928C778.734 137.784 778.638 137.646 778.53 137.514C778.422 137.37 778.326 137.214 778.242 137.046C778.158 136.878 778.116 136.662 778.116 136.398C778.116 135.942 778.26 135.594 778.548 135.354C778.836 135.114 779.28 134.994 779.88 134.994H781.554ZM764.904 129.99C765.264 129.714 765.726 129.498 766.29 129.342C766.866 129.174 767.478 129.09 768.126 129.09C768.666 129.09 769.134 129.15 769.53 129.27C769.938 129.378 770.268 129.534 770.52 129.738C770.784 129.942 770.982 130.182 771.114 130.458C771.246 130.734 771.312 131.034 771.312 131.358C771.312 131.946 771.114 132.456 770.718 132.888C770.322 133.308 769.818 133.638 769.206 133.878L768.9 135.354H767.334V132.978C767.982 132.894 768.426 132.738 768.666 132.51C768.906 132.27 769.026 132 769.026 131.7C769.026 131.424 768.924 131.184 768.72 130.98C768.528 130.764 768.192 130.656 767.712 130.656C767.472 130.656 767.262 130.686 767.082 130.746C766.902 130.794 766.74 130.848 766.596 130.908C766.452 130.968 766.326 131.028 766.218 131.088C766.11 131.136 766.014 131.16 765.93 131.16C765.834 131.16 765.756 131.136 765.696 131.088C765.636 131.028 765.576 130.95 765.516 130.854L764.904 129.99ZM793.733 147.792C792.257 147.84 790.997 147.96 789.953 148.152C788.921 148.332 788.075 148.572 787.415 148.872C786.767 149.172 786.293 149.526 785.993 149.934C785.705 150.342 785.561 150.798 785.561 151.302C785.561 151.782 785.639 152.196 785.795 152.544C785.951 152.892 786.161 153.18 786.425 153.408C786.701 153.624 787.019 153.786 787.379 153.894C787.751 153.99 788.147 154.038 788.567 154.038C789.131 154.038 789.647 153.984 790.115 153.876C790.583 153.756 791.021 153.588 791.429 153.372C791.849 153.156 792.245 152.898 792.617 152.598C793.001 152.298 793.373 151.956 793.733 151.572V147.792ZM783.383 140.34C784.391 139.368 785.477 138.642 786.641 138.162C787.805 137.682 789.095 137.442 790.511 137.442C791.531 137.442 792.437 137.61 793.229 137.946C794.021 138.282 794.687 138.75 795.227 139.35C795.767 139.95 796.175 140.676 796.451 141.528C796.727 142.38 796.865 143.316 796.865 144.336V156H795.443C795.131 156 794.891 155.952 794.723 155.856C794.555 155.748 794.423 155.544 794.327 155.244L793.967 153.516C793.487 153.96 793.019 154.356 792.562 154.704C792.107 155.04 791.627 155.328 791.123 155.568C790.619 155.796 790.079 155.97 789.503 156.09C788.939 156.222 788.309 156.288 787.613 156.288C786.905 156.288 786.239 156.192 785.615 156C784.991 155.796 784.445 155.496 783.977 155.1C783.521 154.704 783.155 154.206 782.879 153.606C782.615 152.994 782.483 152.274 782.483 151.446C782.483 150.726 782.681 150.036 783.077 149.376C783.473 148.704 784.115 148.11 785.003 147.594C785.891 147.078 787.049 146.658 788.477 146.334C789.905 145.998 791.657 145.806 793.733 145.758V144.336C793.733 142.92 793.427 141.852 792.815 141.132C792.203 140.4 791.309 140.034 790.133 140.034C789.341 140.034 788.675 140.136 788.135 140.34C787.607 140.532 787.145 140.754 786.749 141.006C786.365 141.246 786.029 141.468 785.741 141.672C785.465 141.864 785.189 141.96 784.913 141.96C784.697 141.96 784.511 141.906 784.355 141.798C784.199 141.678 784.067 141.534 783.958 141.366L783.383 140.34Z" fill="black"/>
<rect x="540.5" y="196.5" width="359" height="63" rx="4.5" fill="white" stroke="black"/>
<path d="M570.752 235.195C569.32 235.195 568.154 234.727 567.256 233.789C566.357 232.845 565.908 231.585 565.908 230.01V229.678C565.908 228.63 566.107 227.695 566.504 226.875C566.908 226.048 567.467 225.404 568.184 224.941C568.906 224.473 569.688 224.238 570.527 224.238C571.901 224.238 572.969 224.691 573.73 225.596C574.492 226.501 574.873 227.796 574.873 229.482V230.234H567.715C567.741 231.276 568.044 232.119 568.623 232.764C569.209 233.402 569.951 233.721 570.85 233.721C571.488 233.721 572.028 233.59 572.471 233.33C572.913 233.07 573.301 232.725 573.633 232.295L574.736 233.154C573.851 234.515 572.523 235.195 570.752 235.195ZM570.527 225.723C569.798 225.723 569.186 225.99 568.691 226.523C568.197 227.051 567.891 227.793 567.773 228.75H573.066V228.613C573.014 227.695 572.767 226.986 572.324 226.484C571.882 225.977 571.283 225.723 570.527 225.723ZM578.672 224.434L578.721 225.605C579.495 224.694 580.54 224.238 581.855 224.238C583.333 224.238 584.339 224.805 584.873 225.938C585.225 225.43 585.68 225.02 586.24 224.707C586.807 224.395 587.474 224.238 588.242 224.238C590.56 224.238 591.738 225.465 591.777 227.92V235H589.971V228.027C589.971 227.272 589.798 226.709 589.453 226.338C589.108 225.96 588.529 225.771 587.715 225.771C587.044 225.771 586.488 225.973 586.045 226.377C585.602 226.774 585.345 227.311 585.273 227.988V235H583.457V228.076C583.457 226.54 582.705 225.771 581.201 225.771C580.016 225.771 579.206 226.276 578.77 227.285V235H576.963V224.434H578.672ZM601.035 235C600.931 234.792 600.846 234.421 600.781 233.887C599.941 234.759 598.939 235.195 597.773 235.195C596.732 235.195 595.876 234.902 595.205 234.316C594.541 233.724 594.209 232.975 594.209 232.07C594.209 230.97 594.626 230.117 595.459 229.512C596.299 228.9 597.477 228.594 598.994 228.594H600.752V227.764C600.752 227.132 600.563 226.631 600.186 226.26C599.808 225.882 599.251 225.693 598.516 225.693C597.871 225.693 597.331 225.856 596.895 226.182C596.458 226.507 596.24 226.901 596.24 227.363H594.424C594.424 226.836 594.609 226.328 594.98 225.84C595.358 225.345 595.866 224.954 596.504 224.668C597.148 224.382 597.855 224.238 598.623 224.238C599.84 224.238 600.794 224.544 601.484 225.156C602.174 225.762 602.533 226.598 602.559 227.666V232.529C602.559 233.499 602.682 234.271 602.93 234.844V235H601.035ZM598.037 233.623C598.604 233.623 599.141 233.477 599.648 233.184C600.156 232.891 600.524 232.51 600.752 232.041V229.873H599.336C597.122 229.873 596.016 230.521 596.016 231.816C596.016 232.383 596.204 232.826 596.582 233.145C596.96 233.464 597.445 233.623 598.037 233.623ZM607.354 235H605.547V224.434H607.354V235ZM605.4 221.631C605.4 221.338 605.488 221.09 605.664 220.889C605.846 220.687 606.113 220.586 606.465 220.586C606.816 220.586 607.083 220.687 607.266 220.889C607.448 221.09 607.539 221.338 607.539 221.631C607.539 221.924 607.448 222.168 607.266 222.363C607.083 222.559 606.816 222.656 606.465 222.656C606.113 222.656 605.846 222.559 605.664 222.363C605.488 222.168 605.4 221.924 605.4 221.631ZM612.217 235H610.41V220H612.217V235Z" fill="black" fill-opacity="0.5"/>
<rect x="540.5" y="276.5" width="359" height="63" rx="4.5" fill="white" stroke="black"/>
<path d="M575.293 308.834C575.293 310.442 574.925 311.738 574.189 312.721C573.454 313.704 572.458 314.195 571.201 314.195C569.919 314.195 568.91 313.788 568.174 312.975V318.062H566.367V303.434H568.018L568.105 304.605C568.841 303.694 569.863 303.238 571.172 303.238C572.441 303.238 573.444 303.717 574.18 304.674C574.922 305.631 575.293 306.962 575.293 308.668V308.834ZM573.486 308.629C573.486 307.438 573.232 306.497 572.725 305.807C572.217 305.117 571.52 304.771 570.635 304.771C569.541 304.771 568.721 305.257 568.174 306.227V311.275C568.714 312.239 569.541 312.721 570.654 312.721C571.52 312.721 572.207 312.379 572.715 311.695C573.229 311.005 573.486 309.983 573.486 308.629ZM584.121 314C584.017 313.792 583.932 313.421 583.867 312.887C583.027 313.759 582.025 314.195 580.859 314.195C579.818 314.195 578.962 313.902 578.291 313.316C577.627 312.724 577.295 311.975 577.295 311.07C577.295 309.97 577.712 309.117 578.545 308.512C579.385 307.9 580.563 307.594 582.08 307.594H583.838V306.764C583.838 306.132 583.649 305.631 583.271 305.26C582.894 304.882 582.337 304.693 581.602 304.693C580.957 304.693 580.417 304.856 579.98 305.182C579.544 305.507 579.326 305.901 579.326 306.363H577.51C577.51 305.836 577.695 305.328 578.066 304.84C578.444 304.345 578.952 303.954 579.59 303.668C580.234 303.382 580.941 303.238 581.709 303.238C582.926 303.238 583.88 303.544 584.57 304.156C585.26 304.762 585.618 305.598 585.645 306.666V311.529C585.645 312.499 585.768 313.271 586.016 313.844V314H584.121ZM581.123 312.623C581.689 312.623 582.227 312.477 582.734 312.184C583.242 311.891 583.61 311.51 583.838 311.041V308.873H582.422C580.208 308.873 579.102 309.521 579.102 310.816C579.102 311.383 579.29 311.826 579.668 312.145C580.046 312.464 580.531 312.623 581.123 312.623ZM594.629 311.197C594.629 310.709 594.443 310.331 594.072 310.064C593.708 309.791 593.066 309.557 592.148 309.361C591.237 309.166 590.511 308.932 589.971 308.658C589.437 308.385 589.04 308.059 588.779 307.682C588.525 307.304 588.398 306.855 588.398 306.334C588.398 305.468 588.763 304.736 589.492 304.137C590.228 303.538 591.165 303.238 592.305 303.238C593.503 303.238 594.473 303.548 595.215 304.166C595.964 304.785 596.338 305.576 596.338 306.539H594.521C594.521 306.044 594.31 305.618 593.887 305.26C593.47 304.902 592.943 304.723 592.305 304.723C591.647 304.723 591.133 304.866 590.762 305.152C590.391 305.439 590.205 305.813 590.205 306.275C590.205 306.712 590.378 307.04 590.723 307.262C591.068 307.483 591.689 307.695 592.588 307.896C593.493 308.098 594.225 308.339 594.785 308.619C595.345 308.899 595.758 309.238 596.025 309.635C596.299 310.025 596.436 310.504 596.436 311.07C596.436 312.014 596.058 312.773 595.303 313.346C594.548 313.912 593.568 314.195 592.363 314.195C591.517 314.195 590.768 314.046 590.117 313.746C589.466 313.447 588.955 313.03 588.584 312.496C588.219 311.956 588.037 311.373 588.037 310.748H589.844C589.876 311.354 590.117 311.835 590.566 312.193C591.022 312.545 591.621 312.721 592.363 312.721C593.047 312.721 593.594 312.584 594.004 312.311C594.421 312.031 594.629 311.66 594.629 311.197ZM604.941 311.197C604.941 310.709 604.756 310.331 604.385 310.064C604.02 309.791 603.379 309.557 602.461 309.361C601.549 309.166 600.824 308.932 600.283 308.658C599.749 308.385 599.352 308.059 599.092 307.682C598.838 307.304 598.711 306.855 598.711 306.334C598.711 305.468 599.076 304.736 599.805 304.137C600.54 303.538 601.478 303.238 602.617 303.238C603.815 303.238 604.785 303.548 605.527 304.166C606.276 304.785 606.65 305.576 606.65 306.539H604.834C604.834 306.044 604.622 305.618 604.199 305.26C603.783 304.902 603.255 304.723 602.617 304.723C601.96 304.723 601.445 304.866 601.074 305.152C600.703 305.439 600.518 305.813 600.518 306.275C600.518 306.712 600.69 307.04 601.035 307.262C601.38 307.483 602.002 307.695 602.9 307.896C603.805 308.098 604.538 308.339 605.098 308.619C605.658 308.899 606.071 309.238 606.338 309.635C606.611 310.025 606.748 310.504 606.748 311.07C606.748 312.014 606.37 312.773 605.615 313.346C604.86 313.912 603.88 314.195 602.676 314.195C601.829 314.195 601.081 314.046 600.43 313.746C599.779 313.447 599.268 313.03 598.896 312.496C598.532 311.956 598.35 311.373 598.35 310.748H600.156C600.189 311.354 600.43 311.835 600.879 312.193C601.335 312.545 601.934 312.721 602.676 312.721C603.359 312.721 603.906 312.584 604.316 312.311C604.733 312.031 604.941 311.66 604.941 311.197ZM618.457 311.51L620.488 303.434H622.295L619.219 314H617.754L615.186 305.992L612.686 314H611.221L608.154 303.434H609.951L612.031 311.344L614.492 303.434H615.947L618.457 311.51ZM623.662 308.619C623.662 307.584 623.864 306.653 624.268 305.826C624.678 304.999 625.244 304.361 625.967 303.912C626.696 303.463 627.526 303.238 628.457 303.238C629.896 303.238 631.058 303.736 631.943 304.732C632.835 305.729 633.281 307.053 633.281 308.707V308.834C633.281 309.863 633.083 310.787 632.686 311.607C632.295 312.421 631.732 313.056 630.996 313.512C630.267 313.967 629.427 314.195 628.477 314.195C627.044 314.195 625.882 313.697 624.99 312.701C624.105 311.705 623.662 310.387 623.662 308.746V308.619ZM625.479 308.834C625.479 310.006 625.749 310.947 626.289 311.656C626.836 312.366 627.565 312.721 628.477 312.721C629.395 312.721 630.124 312.363 630.664 311.646C631.204 310.924 631.475 309.915 631.475 308.619C631.475 307.46 631.198 306.523 630.645 305.807C630.098 305.084 629.368 304.723 628.457 304.723C627.565 304.723 626.846 305.077 626.299 305.787C625.752 306.497 625.479 307.512 625.479 308.834ZM640.654 305.055C640.381 305.009 640.085 304.986 639.766 304.986C638.581 304.986 637.777 305.491 637.354 306.5V314H635.547V303.434H637.305L637.334 304.654C637.926 303.71 638.766 303.238 639.854 303.238C640.205 303.238 640.472 303.284 640.654 303.375V305.055ZM641.689 308.629C641.689 307.008 642.074 305.706 642.842 304.723C643.61 303.733 644.616 303.238 645.859 303.238C647.096 303.238 648.076 303.661 648.799 304.508V299H650.605V314H648.945L648.857 312.867C648.135 313.753 647.129 314.195 645.84 314.195C644.616 314.195 643.617 313.694 642.842 312.691C642.074 311.689 641.689 310.38 641.689 308.766V308.629ZM643.496 308.834C643.496 310.032 643.743 310.969 644.238 311.646C644.733 312.324 645.417 312.662 646.289 312.662C647.435 312.662 648.271 312.148 648.799 311.119V306.266C648.258 305.27 647.428 304.771 646.309 304.771C645.423 304.771 644.733 305.113 644.238 305.797C643.743 306.48 643.496 307.493 643.496 308.834Z" fill="black" fill-opacity="0.5"/>
<rect x="540.5" y="108.5" width="359" height="63" rx="4.5" fill="white" stroke="black"/>
<path d="M570.752 147.195C569.32 147.195 568.154 146.727 567.256 145.789C566.357 144.845 565.908 143.585 565.908 142.01V141.678C565.908 140.63 566.107 139.695 566.504 138.875C566.908 138.048 567.467 137.404 568.184 136.941C568.906 136.473 569.688 136.238 570.527 136.238C571.901 136.238 572.969 136.691 573.73 137.596C574.492 138.501 574.873 139.796 574.873 141.482V142.234H567.715C567.741 143.276 568.044 144.119 568.623 144.764C569.209 145.402 569.951 145.721 570.85 145.721C571.488 145.721 572.028 145.59 572.471 145.33C572.913 145.07 573.301 144.725 573.633 144.295L574.736 145.154C573.851 146.515 572.523 147.195 570.752 147.195ZM570.527 137.723C569.798 137.723 569.186 137.99 568.691 138.523C568.197 139.051 567.891 139.793 567.773 140.75H573.066V140.613C573.014 139.695 572.767 138.986 572.324 138.484C571.882 137.977 571.283 137.723 570.527 137.723ZM578.672 136.434L578.721 137.605C579.495 136.694 580.54 136.238 581.855 136.238C583.333 136.238 584.339 136.805 584.873 137.938C585.225 137.43 585.68 137.02 586.24 136.707C586.807 136.395 587.474 136.238 588.242 136.238C590.56 136.238 591.738 137.465 591.777 139.92V147H589.971V140.027C589.971 139.272 589.798 138.709 589.453 138.338C589.108 137.96 588.529 137.771 587.715 137.771C587.044 137.771 586.488 137.973 586.045 138.377C585.602 138.774 585.345 139.311 585.273 139.988V147H583.457V140.076C583.457 138.54 582.705 137.771 581.201 137.771C580.016 137.771 579.206 138.276 578.77 139.285V147H576.963V136.434H578.672ZM601.035 147C600.931 146.792 600.846 146.421 600.781 145.887C599.941 146.759 598.939 147.195 597.773 147.195C596.732 147.195 595.876 146.902 595.205 146.316C594.541 145.724 594.209 144.975 594.209 144.07C594.209 142.97 594.626 142.117 595.459 141.512C596.299 140.9 597.477 140.594 598.994 140.594H600.752V139.764C600.752 139.132 600.563 138.631 600.186 138.26C599.808 137.882 599.251 137.693 598.516 137.693C597.871 137.693 597.331 137.856 596.895 138.182C596.458 138.507 596.24 138.901 596.24 139.363H594.424C594.424 138.836 594.609 138.328 594.98 137.84C595.358 137.345 595.866 136.954 596.504 136.668C597.148 136.382 597.855 136.238 598.623 136.238C599.84 136.238 600.794 136.544 601.484 137.156C602.174 137.762 602.533 138.598 602.559 139.666V144.529C602.559 145.499 602.682 146.271 602.93 146.844V147H601.035ZM598.037 145.623C598.604 145.623 599.141 145.477 599.648 145.184C600.156 144.891 600.524 144.51 600.752 144.041V141.873H599.336C597.122 141.873 596.016 142.521 596.016 143.816C596.016 144.383 596.204 144.826 596.582 145.145C596.96 145.464 597.445 145.623 598.037 145.623ZM607.354 147H605.547V136.434H607.354V147ZM605.4 133.631C605.4 133.338 605.488 133.09 605.664 132.889C605.846 132.687 606.113 132.586 606.465 132.586C606.816 132.586 607.083 132.687 607.266 132.889C607.448 133.09 607.539 133.338 607.539 133.631C607.539 133.924 607.448 134.168 607.266 134.363C607.083 134.559 606.816 134.656 606.465 134.656C606.113 134.656 605.846 134.559 605.664 134.363C605.488 134.168 605.4 133.924 605.4 133.631ZM612.217 147H610.41V132H612.217V147Z" fill="black" fill-opacity="0.5"/>
</svg>
